<svg data-v-fde0c5aa="" xmlns="http://www.w3.org/2000/svg" viewBox="0 0 300 300" class="iconAbove"><!----><defs data-v-fde0c5aa=""><!----></defs><rect data-v-fde0c5aa="" fill="#FFE9E6" x="0" y="0" width="300px" height="300px" class="logo-background-square"></rect><defs data-v-fde0c5aa=""><!----></defs><g data-v-fde0c5aa="" id="3987fdc4-8f11-46e6-8743-68f3a8d6587f" fill="#3A1C18" transform="matrix(2.460955951205672,0,0,2.460955951205672,16.7761478447376,165.95220126624116)"><path d="M13.15 18.47C11.61 18.47 10.69 15.25 9.76 12.90C9.33 11.83 8.00 11.55 7.66 11.48L7.67 11.46C10.54 11.37 12.55 10.06 12.55 7.21C12.55 5.55 11.14 4.66 8.50 4.66C8.20 4.66 3.20 4.57 2.88 4.55L2.84 4.98C3.11 4.97 3.71 4.96 4.07 4.96C4.47 4.96 4.60 5.11 4.60 5.49C4.60 5.69 4.57 5.94 4.51 6.27L3.21 14.18C3.09 14.90 2.62 15.22 2.19 15.22C1.84 15.22 1.51 14.99 1.46 14.58L1.31 14.62C1.44 15.65 2.01 16.00 3.08 16.00C4.59 16.00 5.11 13.77 5.37 12.63L5.65 11.42L5.75 11.03L6.35 8.41C6.48 7.84 7.04 5.80 7.14 4.98C7.79 5.00 8.29 5.00 8.44 5.00C9.71 5.00 10.40 5.67 10.40 6.90C10.40 9.57 9.25 11.09 7.39 11.09L6.25 11.05C6.10 11.04 6.05 11.15 6.02 11.27L6.00 11.44C6.22 11.44 6.51 11.49 6.71 11.83C9.53 17.52 11.40 19.24 13.43 19.24C15.35 19.24 16.14 18.42 16.14 17.81C16.14 17.23 15.26 17.05 14.90 17.05C14.64 18.06 14.12 18.47 13.15 18.47ZM15.60 13.64C18.53 13.62 21.08 12.69 21.08 10.85C21.08 9.74 20.06 9.15 18.12 9.15C15.48 9.15 13.48 10.58 13.48 13.28C13.48 14.94 14.73 16.00 16.78 16.00C18.27 16.00 19.54 15.45 20.38 14.52L20.13 14.29C19.58 14.96 18.41 15.53 17.40 15.53C16.15 15.53 15.59 15.06 15.59 13.86C15.59 13.79 15.59 13.72 15.60 13.64ZM15.62 13.30C15.79 11.33 16.84 9.50 18.05 9.50C18.80 9.50 19.19 9.90 19.19 10.66C19.19 12.54 17.81 13.30 15.62 13.30ZM29.38 9.30C29.22 9.30 28.70 9.38 28.38 10.10C28.04 9.48 27.36 9.15 26.28 9.15C23.66 9.15 21.91 10.83 21.91 13.33C21.91 14.93 23.13 16.00 24.94 16.00C26.69 16.00 27.49 14.96 27.99 13.92C27.99 15.25 28.77 16.00 29.59 16.00C30.17 16.00 30.79 15.63 31.19 14.85L31.79 13.67L31.67 13.60L31.20 14.51C30.99 14.92 30.58 15.16 30.24 15.16C29.89 15.16 29.61 14.93 29.61 14.43C29.61 14.33 29.62 14.23 29.64 14.11L29.96 12.91C30.12 12.33 30.67 10.04 30.73 9.30ZM28.17 10.31C28.20 10.35 28.21 10.42 28.21 10.49C28.21 10.60 28.19 10.71 28.18 10.77L28.06 12.56C28.05 12.65 28.02 13.00 27.96 13.15C27.56 14.19 26.83 15.53 25.55 15.53C24.55 15.53 24.01 14.98 24.01 13.97C24.01 11.30 25.14 9.52 26.83 9.52C27.30 9.52 27.88 9.75 28.17 10.31ZM34.97 5.47L33.90 5.46L33.89 5.59C34.02 5.59 34.11 5.59 34.11 5.89C34.11 6.09 34.07 6.41 33.98 6.95L33.03 12.56C32.95 13.02 32.85 13.64 32.85 14.23C32.85 15.39 33.61 15.96 34.43 15.96C35.09 15.96 35.79 15.59 36.17 14.85L36.77 13.67L36.65 13.60L36.18 14.51C36.00 14.86 35.53 15.15 35.13 15.15C34.81 15.15 34.55 14.96 34.55 14.46C34.55 14.36 34.56 14.24 34.59 14.11L35.78 9.08C35.92 8.50 36.52 6.20 36.59 5.46ZM39.76 13.64C42.68 13.62 45.24 12.69 45.24 10.85C45.24 9.74 44.21 9.15 42.27 9.15C39.63 9.15 37.64 10.58 37.64 13.28C37.64 14.94 38.89 16.00 40.94 16.00C42.42 16.00 43.70 15.45 44.54 14.52L44.28 14.29C43.74 14.96 42.57 15.53 41.56 15.53C40.30 15.53 39.75 15.06 39.75 13.86C39.75 13.79 39.75 13.72 39.76 13.64ZM39.78 13.30C39.95 11.33 41.00 9.50 42.21 9.50C42.96 9.50 43.35 9.90 43.35 10.66C43.35 12.54 41.97 13.30 39.78 13.30ZM48.92 16.00C50.98 16.00 52.80 15.22 52.80 13.85C52.80 12.82 51.67 12.35 50.57 11.81C49.67 11.37 48.69 11.19 48.69 10.58C48.69 9.78 49.43 9.50 50.20 9.49C51.28 9.49 51.76 9.93 51.88 11.18C52.46 11.18 52.84 10.86 52.84 10.39C52.84 10.28 52.81 10.16 52.73 10.04C52.17 9.26 51.25 9.16 50.26 9.16C48.21 9.16 46.72 9.83 46.72 11.28C46.72 12.20 47.69 12.78 48.75 13.11C49.87 13.46 51.07 13.75 51.07 14.40C51.07 15.19 50.07 15.66 48.99 15.66C47.73 15.66 46.95 15.06 46.84 13.84L46.83 13.79C46.16 13.79 45.80 14.08 45.80 14.61C45.80 14.72 45.83 14.84 45.92 14.96C46.53 15.82 47.78 16.00 48.92 16.00ZM55.23 9.65L54.78 12.56C54.71 13.03 54.59 13.67 54.59 14.27C54.59 15.39 55.44 15.96 56.34 15.96C57.06 15.96 57.82 15.59 58.20 14.85L58.80 13.67L58.69 13.60L58.21 14.51C58.03 14.88 57.49 15.16 57.03 15.16C56.64 15.16 56.31 14.94 56.31 14.40C56.31 14.31 56.32 14.22 56.34 14.11L57.33 9.65L59.42 9.65L59.42 9.30L57.41 9.30L57.98 6.69C57.98 6.69 57.99 6.66 57.99 6.65C57.99 6.63 57.92 6.62 57.84 6.62L57.05 6.62C56.42 6.62 55.60 7.29 55.47 8.13L55.29 9.30L53.90 9.30L53.90 9.65ZM76.16 12.93L75.93 12.72C74.59 14.51 72.88 15.39 70.49 15.39C68.87 15.39 67.99 14.34 67.99 12.38C67.99 7.88 69.83 4.87 72.58 4.87C75.22 4.87 75.66 6.06 75.84 8.03C76.69 8.03 77.25 7.58 77.25 6.90C77.25 5.13 74.26 4.53 72.65 4.53C68.56 4.53 65.84 7.35 65.84 11.59C65.84 14.23 67.67 16.00 70.42 16.00C72.89 16.00 74.73 14.84 76.16 12.93ZM80.66 15.65C79.76 15.65 79.34 15.22 79.34 14.12C79.34 11.81 80.42 9.50 81.86 9.50C82.70 9.50 83.15 10.11 83.15 11.27C83.15 13.78 82.09 15.65 80.66 15.65ZM81.93 9.15C79.29 9.15 77.29 10.58 77.29 13.28C77.29 14.94 78.54 16.00 80.60 16.00C83.17 16.00 85.25 14.36 85.25 11.70C85.25 10.04 84.11 9.15 81.93 9.15ZM88.52 9.23C87.77 9.23 87.09 9.43 86.64 10.31L86.24 11.08L86.37 11.14L86.76 10.37C86.97 9.97 87.21 9.72 87.38 9.72C87.50 9.72 87.58 9.86 87.58 10.19C87.58 10.32 87.57 10.49 87.53 10.71L86.71 15.64C86.71 15.67 86.70 15.70 86.70 15.71C86.70 15.83 87.11 15.87 87.57 15.87L88.46 15.86C88.46 15.86 88.59 15.83 88.60 15.78L89.33 12.91C89.78 11.11 90.92 9.54 91.79 9.54C92.35 9.54 92.71 10.01 92.79 10.90C92.86 10.93 92.93 10.94 93.01 10.94C93.51 10.94 94.17 10.47 94.17 9.82C94.17 9.13 93.61 8.66 92.78 8.66C91.72 8.66 90.37 9.69 89.76 10.91C89.76 10.79 89.77 10.72 89.77 10.61C89.77 9.84 89.49 9.23 88.52 9.23ZM97.07 14.72L97.22 14.06L97.55 12.66C97.59 12.50 97.62 12.30 97.66 12.10C98.07 11.06 98.80 9.69 100.07 9.69C100.99 9.69 101.60 10.32 101.60 11.26C101.60 13.88 100.47 15.63 98.79 15.63C98.19 15.63 97.73 15.31 97.46 14.90L97.36 15.29C97.75 15.76 98.40 16.00 99.34 16.00C101.96 16.00 103.72 14.40 103.72 11.89C103.72 10.27 102.57 9.23 100.67 9.23C99.07 9.23 98.26 10.10 97.75 11.05C97.75 10.14 97.45 9.30 96.41 9.30C95.66 9.30 95.19 9.50 94.73 10.38L94.45 10.92L94.57 11.00L94.72 10.71C94.92 10.33 95.24 9.88 95.44 9.88C95.57 9.88 95.65 10.04 95.65 10.43C95.65 10.55 95.62 10.96 95.59 11.12L94.71 16.35C94.52 17.51 94.42 18.09 94.42 18.38C94.42 18.61 94.49 18.66 94.60 18.66L96.20 18.66C96.28 18.14 96.35 17.83 96.50 17.19ZM104.84 15.15C104.84 15.72 105.29 16.21 105.90 16.21C106.47 16.21 106.96 15.75 106.96 15.15C106.96 14.51 106.53 14.09 105.90 14.09C105.26 14.09 104.84 14.51 104.84 15.15Z"></path></g><defs data-v-fde0c5aa=""><!----></defs><g data-v-fde0c5aa="" id="f1c21d65-0403-4863-ae85-8e2fae5ebfbc" stroke="none" fill="#FF5A20" transform="matrix(2.2625413835070907,0,0,2.2625413835070907,113.79933678502275,86.69900679582983)"><path d="M16 8.204l7.065 3.915v7.761L16 23.796 8.935 19.88v-7.76L16 8.204m0-1.143l-8.065 4.47v8.939L16 24.939l8.065-4.47V11.53L16 7.061zM27.85 1v3.356H4.15V1h23.7m1-1H3.15v5.356h25.7V0zM27.85 27.644V31H4.15v-3.356h23.7m1-1H3.15V32h25.7v-5.356z"></path></g><!----></svg>