<svg xmlns="http://www.w3.org/2000/svg"  viewBox="0 0 80 80" width="16px" height="16px"><circle cx="40" cy="40" r="37.5" fill="#8bb7f0" stroke="#4e7ab5" stroke-miterlimit="10"/><path fill="#fff" d="M64.324,25.041c-1.788,0.793-4.052,1.536-6.081,1.784c2.064-1.224,5.337-3.774,6.081-6.081 c-1.928,1.133-5.414,2.343-7.689,2.781c-1.816-1.926-4.407-2.781-7.277-2.781c-5.514,0-9.359,4.672-9.359,10.135v4.054 c-8.108,0-16.014-6.176-20.933-12.162c-0.866,1.461-1.352,3.172-1.352,4.98c0,3.687,3.387,7.429,6.069,9.209 c-1.636-0.051-4.733-1.299-6.081-2.027c0,0.032,0,0.073,0,0.116c0,4.798,3.367,8.055,7.93,8.964 c-0.833,0.229-1.849,1.056-5.757,1.056c1.269,3.922,7.648,5.996,12.016,6.081c-3.418,2.649-9.511,4.054-14.189,4.054 c-0.809,0-1.247,0.045-2.027-0.047c4.415,2.797,10.581,4.101,16.216,4.101c18.359,0,28.378-14.023,28.378-27.101 c0-0.43-0.014-1.869-0.036-2.291C62.196,28.482,62.991,27.035,64.324,25.041"/></svg>